<?xml version="1.0" encoding="UTF-8"?>
<!DOCTYPE svg PUBLIC "-//W3C//DTD SVG 1.1//EN" "http://www.w3.org/Graphics/SVG/1.1/DTD/svg11.dtd">
<svg version="1.1" xmlns="http://www.w3.org/2000/svg" xmlns:xlink="http://www.w3.org/1999/xlink" x="0" y="0" width="442.8" height="213.2" viewBox="0, 0, 108, 52">
  <g id="Layer_1">
    <path d="M31.171,42.13 L34.517,42.13 L34.517,43.705 L31.171,43.705 L31.171,42.13 z M46.303,42.13 L49.649,42.13 L49.649,43.705 L46.303,43.705 L46.303,42.13 z M61.436,42.13 L64.782,42.13 L64.782,43.705 L61.436,43.705 L61.436,42.13 z M76.566,42.13 L79.912,42.13 L79.912,43.705 L76.566,43.705 L76.566,42.13 z M16.039,42.13 L19.385,42.13 L19.385,43.705 L16.039,43.705 L16.039,42.13 z" fill="#006BA7"/>
    <path d="M10.131,38.207 L12.051,39.316 L13.971,40.424 L13.971,42.642 L13.971,44.859 L12.051,45.968 L10.131,47.076 L8.211,45.968 L6.291,44.859 L6.291,42.642 L6.291,40.424 L8.211,39.316 z" fill="#EF801A"/>
    <path d="M25.275,38.207 L27.195,39.316 L29.115,40.424 L29.115,42.642 L29.115,44.859 L27.195,45.968 L25.275,47.076 L23.354,45.968 L21.435,44.859 L21.435,42.642 L21.435,40.424 L23.354,39.316 z" fill="#006BA7"/>
    <path d="M40.418,38.207 L42.339,39.316 L44.259,40.424 L44.259,42.642 L44.259,44.859 L42.339,45.968 L40.418,47.076 L38.499,45.968 L36.578,44.859 L36.578,42.642 L36.578,40.424 L38.499,39.316 z" fill="#EF801A"/>
    <path d="M55.563,38.207 L57.482,39.316 L59.402,40.424 L59.402,42.642 L59.402,44.859 L57.482,45.968 L55.563,47.076 L53.642,45.968 L51.722,44.859 L51.722,42.642 L51.722,40.424 L53.642,39.316 z" fill="#EF801A"/>
    <path d="M70.706,38.207 L72.627,39.316 L74.547,40.424 L74.547,42.642 L74.547,44.859 L72.627,45.968 L70.706,47.076 L68.786,45.968 L66.866,44.859 L66.866,42.642 L66.866,40.424 L68.786,39.316 z" fill="#EF801A"/>
    <path d="M85.85,38.207 L87.771,39.316 L89.689,40.424 L89.689,42.642 L89.689,44.859 L87.771,45.968 L85.85,47.076 L83.93,45.968 L82.01,44.859 L82.01,42.642 L82.01,40.424 L83.93,39.316 z" fill="#006BA7"/>
    <path d="M31.171,30.981 L34.517,30.981 L34.517,32.556 L31.171,32.556 L31.171,30.981 z M46.303,30.981 L49.649,30.981 L49.649,32.556 L46.303,32.556 L46.303,30.981 z M61.436,30.981 L64.782,30.981 L64.782,32.556 L61.436,32.556 L61.436,30.981 z M76.566,30.981 L79.912,30.981 L79.912,32.556 L76.566,32.556 L76.566,30.981 z M16.039,30.981 L19.385,30.981 L19.385,32.556 L16.039,32.556 L16.039,30.981 z" fill="#006BA7"/>
    <path d="M31.171,19.832 L34.517,19.832 L34.517,21.407 L31.171,21.407 L31.171,19.832 z M46.303,19.832 L49.649,19.832 L49.649,21.407 L46.303,21.407 L46.303,19.832 z M61.436,19.832 L64.782,19.832 L64.782,21.407 L61.436,21.407 L61.436,19.832 z M76.566,19.832 L79.912,19.832 L79.912,21.407 L76.566,21.407 L76.566,19.832 z M16.039,19.832 L19.385,19.832 L19.385,21.407 L16.039,21.407 L16.039,19.832 z" fill="#006BA7"/>
    <path d="M31.171,8.682 L34.517,8.682 L34.517,10.257 L31.171,10.257 L31.171,8.682 z M46.303,8.682 L49.649,8.682 L49.649,10.257 L46.303,10.257 L46.303,8.682 z M61.436,8.682 L64.782,8.682 L64.782,10.257 L61.436,10.257 L61.436,8.682 z M76.566,8.682 L79.912,8.682 L79.912,10.257 L76.566,10.257 L76.566,8.682 z M16.039,8.682 L19.385,8.682 L19.385,10.257 L16.039,10.257 L16.039,8.682 z" fill="#006BA7"/>
    <path d="M10.131,27.058 L12.051,28.167 L13.971,29.275 L13.971,31.492 L13.971,33.709 L12.051,34.818 L10.131,35.927 L8.211,34.818 L6.291,33.709 L6.291,31.492 L6.291,29.275 L8.211,28.167 z" fill="#EF801A"/>
    <path d="M10.131,15.908 L12.051,17.017 L13.971,18.125 L13.971,20.343 L13.971,22.56 L12.051,23.668 L10.131,24.777 L8.211,23.668 L6.291,22.56 L6.291,20.343 L6.291,18.125 L8.211,17.017 z" fill="#EF801A"/>
    <path d="M10.131,4.759 L12.051,5.868 L13.971,6.976 L13.971,9.193 L13.971,11.411 L12.051,12.52 L10.131,13.628 L8.211,12.52 L6.291,11.411 L6.291,9.193 L6.291,6.976 L8.211,5.868 z" fill="#006BA7"/>
    <path d="M25.275,27.058 L27.195,28.167 L29.115,29.275 L29.115,31.492 L29.115,33.709 L27.195,34.818 L25.275,35.927 L23.354,34.818 L21.435,33.709 L21.435,31.492 L21.435,29.275 L23.354,28.167 z" fill="#006BA7"/>
    <path d="M25.275,15.908 L27.195,17.017 L29.115,18.125 L29.115,20.343 L29.115,22.56 L27.195,23.668 L25.275,24.777 L23.354,23.668 L21.435,22.56 L21.435,20.343 L21.435,18.125 L23.354,17.017 z" fill="#006BA7"/>
    <path d="M25.275,4.759 L27.195,5.868 L29.115,6.976 L29.115,9.193 L29.115,11.411 L27.195,12.52 L25.275,13.628 L23.354,12.52 L21.435,11.411 L21.435,9.193 L21.435,6.976 L23.354,5.868 z" fill="#EF801A"/>
    <path d="M40.418,27.058 L42.339,28.167 L44.259,29.275 L44.259,31.492 L44.259,33.709 L42.339,34.818 L40.418,35.927 L38.499,34.818 L36.578,33.709 L36.578,31.492 L36.578,29.275 L38.499,28.167 z" fill="#006BA7"/>
    <path d="M40.418,15.908 L42.339,17.017 L44.259,18.125 L44.259,20.343 L44.259,22.56 L42.339,23.668 L40.418,24.777 L38.499,23.668 L36.578,22.56 L36.578,20.343 L36.578,18.125 L38.499,17.017 z" fill="#EF801A"/>
    <path d="M40.418,4.759 L42.339,5.868 L44.259,6.976 L44.259,9.193 L44.259,11.411 L42.339,12.52 L40.418,13.628 L38.499,12.52 L36.578,11.411 L36.578,9.193 L36.578,6.976 L38.499,5.868 z" fill="#006BA7"/>
    <path d="M55.563,27.058 L57.482,28.167 L59.402,29.275 L59.402,31.492 L59.402,33.709 L57.482,34.818 L55.563,35.927 L53.642,34.818 L51.722,33.709 L51.722,31.492 L51.722,29.275 L53.642,28.167 z" fill="#EF801A"/>
    <path d="M55.563,15.908 L57.482,17.017 L59.402,18.125 L59.402,20.343 L59.402,22.56 L57.482,23.668 L55.563,24.777 L53.642,23.668 L51.722,22.56 L51.722,20.343 L51.722,18.125 L53.642,17.017 z" fill="#006BA7"/>
    <path d="M55.563,4.759 L57.482,5.868 L59.402,6.976 L59.402,9.193 L59.402,11.411 L57.482,12.52 L55.563,13.628 L53.642,12.52 L51.722,11.411 L51.722,9.193 L51.722,6.976 L53.642,5.868 z" fill="#EF801A"/>
    <path d="M70.706,27.058 L72.627,28.167 L74.547,29.275 L74.547,31.492 L74.547,33.709 L72.627,34.818 L70.706,35.927 L68.786,34.818 L66.866,33.709 L66.866,31.492 L66.866,29.275 L68.786,28.167 z" fill="#006BA7"/>
    <path d="M70.706,15.908 L72.627,17.017 L74.547,18.125 L74.547,20.343 L74.547,22.56 L72.627,23.668 L70.706,24.777 L68.786,23.668 L66.866,22.56 L66.866,20.343 L66.866,18.125 L68.786,17.017 z" fill="#EF801A"/>
    <path d="M70.706,4.759 L72.627,5.868 L74.547,6.976 L74.547,9.193 L74.547,11.411 L72.627,12.52 L70.706,13.628 L68.786,12.52 L66.866,11.411 L66.866,9.193 L66.866,6.976 L68.786,5.868 z" fill="#006BA7"/>
    <path d="M85.85,27.058 L87.771,28.167 L89.689,29.275 L89.689,31.492 L89.689,33.709 L87.771,34.818 L85.85,35.927 L83.93,34.818 L82.01,33.709 L82.01,31.492 L82.01,29.275 L83.93,28.167 z" fill="#EF801A"/>
    <path d="M85.85,15.908 L87.771,17.017 L89.689,18.125 L89.689,20.343 L89.689,22.56 L87.771,23.668 L85.85,24.777 L83.93,23.668 L82.01,22.56 L82.01,20.343 L82.01,18.125 L83.93,17.017 z" fill="#006BA7"/>
    <path d="M85.85,4.759 L87.771,5.868 L89.689,6.976 L89.689,9.193 L89.689,11.411 L87.771,12.52 L85.85,13.628 L83.93,12.52 L82.01,11.411 L82.01,9.193 L82.01,6.976 L83.93,5.868 z" fill="#EF801A"/>
    <path d="M99.698,7.125 L97.172,9.652 L96.078,8.557 L95.265,9.369 L97.17,11.275 L100.509,7.937 L99.698,7.125 z M101.936,5.099 L93.748,5.099 L93.748,13.287 L101.936,13.287 L101.936,5.099 z M101,6.035 L101,12.351 L94.684,12.351 L94.684,6.035 L101,6.035 z" fill="#006BA7"/>
    <path d="M99.698,18.275 L97.172,20.801 L96.078,19.707 L95.265,20.519 L97.17,22.425 L100.509,19.086 L99.698,18.275 z M101.936,16.249 L93.748,16.249 L93.748,24.437 L101.936,24.437 L101.936,16.249 z M101,17.185 L101,23.5 L94.684,23.5 L94.684,17.184 L101,17.185 L101,17.185 z" fill="#006BA7"/>
    <path d="M100.173,33.016 L98.672,31.516 L100.173,30.015 L99.365,29.208 L97.865,30.708 L96.363,29.208 L95.556,30.014 L97.058,31.515 L95.556,33.015 L96.363,33.822 L97.865,32.321 L99.366,33.822 L100.173,33.016 z M101.936,27.398 L93.748,27.398 L93.748,35.586 L101.936,35.586 L101.936,27.398 z M101,28.334 L101,34.65 L94.684,34.65 L94.684,28.334 L101,28.334 z" fill="#EF801A"/>
    <path d="M100.173,44.166 L98.672,42.665 L100.173,41.164 L99.365,40.358 L97.865,41.859 L96.363,40.358 L95.556,41.165 L97.058,42.665 L95.556,44.166 L96.363,44.973 L97.865,43.472 L99.366,44.973 L100.173,44.166 z M101.936,38.548 L93.748,38.548 L93.748,46.736 L101.936,46.736 L101.936,38.548 z M101,39.483 L101,45.799 L94.684,45.799 L94.684,39.483 L101,39.483 z" fill="#EF801A"/>
  </g>
</svg>
